name Walk2.mot
datacolumns 19
datarows 20
range 2.10000000 2.19500000
endheader

                time	   L_ground_force_vx	   L_ground_force_vy	   L_ground_force_vz	   L_ground_force_px	   L_ground_force_py	   L_ground_force_pz	   R_ground_force_vx	   R_ground_force_vy	   R_ground_force_vz	   R_ground_force_px	   R_ground_force_py	   R_ground_force_pz	   L_ground_torque_x	   L_ground_torque_y	   L_ground_torque_z	   R_ground_torque_x	   R_ground_torque_y	   R_ground_torque_z	
          2.10000000	        -29.08706599	        538.09360021	         26.62183195	          0.48035701	          0.00000000	          0.21325972	          0.03433052	          0.08475605	          0.00300512	         -0.00010132	          0.00000000	          0.00036539	          0.00000000	         -0.84500635	          0.00000000	          0.00000000	          0.00023202	          0.00000000	
          2.10500000	        -26.75987678	        532.44975610	         26.85734398	          0.48219890	          0.00000000	          0.21291886	          0.01964770	          0.04993012	          0.00193868	         -0.00008611	          0.00000000	          0.00030735	          0.00000000	         -0.96629675	          0.00000000	          0.00000000	          0.00014675	          0.00000000	
          2.11000000	        -24.49813266	        528.19406745	         27.39217615	          0.48401710	          0.00000000	          0.21258132	          0.00867799	          0.02364806	          0.00110146	         -0.00006954	          0.00000000	          0.00024581	          0.00000000	         -1.08051497	          0.00000000	          0.00000000	          0.00008046	          0.00000000	
          2.11500000	        -22.27228775	        525.33554274	         28.18160905	          0.48580207	          0.00000000	          0.21225157	          0.00095701	          0.00492360	          0.00047746	         -0.00005342	          0.00000000	          0.00018691	          0.00000000	         -1.18786630	          0.00000000	          0.00000000	          0.00003159	          0.00000000	
          2.12000000	        -20.05300378	        523.88224041	         29.15761738	          0.48754705	          0.00000000	          0.21193573	         -0.00407000	         -0.00747342	          0.00003954	         -0.00003885	          0.00000000	          0.00013436	          0.00000000	         -1.28956114	          0.00000000	          0.00000000	         -0.00000225	          0.00000000	
          2.12500000	        -17.81186114	        523.83880563	         30.23946350	          0.48924871	          0.00000000	          0.21164181	         -0.00697183	         -0.01483234	         -0.00024442	         -0.00002644	          0.00000000	          0.00009003	          0.00000000	         -1.38771640	          0.00000000	          0.00000000	         -0.00002377	          0.00000000	
          2.13000000	        -15.52429887	        525.19897772	         31.34230524	          0.49090655	          0.00000000	          0.21137767	         -0.00828133	         -0.01837841	         -0.00040718	         -0.00001639	          0.00000000	          0.00005448	          0.00000000	         -1.48546086	          0.00000000	          0.00000000	         -0.00003569	          0.00000000	
          2.13500000	        -13.17365125	        527.94063397	         32.38441527	          0.49252202	          0.00000000	          0.21115101	         -0.00846614	         -0.01919893	         -0.00047936	         -0.00000865	          0.00000000	          0.00002738	          0.00000000	         -1.58666856	          0.00000000	          0.00000000	         -0.00004052	          0.00000000	
          2.14000000	        -10.75370384	        532.02186065	         33.29332923	          0.49410052	          0.00000000	          0.21096808	         -0.00791508	         -0.01820671	         -0.00048773	         -0.00000300	          0.00000000	          0.00000783	          0.00000000	         -1.69525033	          0.00000000	          0.00000000	         -0.00004040	          0.00000000	
          2.14500000	         -8.26989628	        537.37682415	         34.00981931	          0.49565284	          0.00000000	          0.21083318	         -0.00693571	         -0.01613048	         -0.00045453	          0.00000086	          0.00000000	         -0.00000532	          0.00000000	         -1.81443657	          0.00000000	          0.00000000	         -0.00003714	          0.00000000	
          2.15000000	         -5.73909517	        543.91305804	         34.49172945	          0.49719353	          0.00000000	          0.21074971	         -0.00575913	         -0.01352332	         -0.00039729	          0.00000327	          0.00000000	         -0.00001334	          0.00000000	         -1.94648863	          0.00000000	          0.00000000	         -0.00003211	          0.00000000	
          2.15500000	         -3.18835683	        551.51025007	         34.71634927	          0.49874012	          0.00000000	          0.21071897	         -0.00454913	         -0.01078186	         -0.00032916	          0.00000455	          0.00000000	         -0.00001742	          0.00000000	         -2.09263888	          0.00000000	          0.00000000	         -0.00002634	          0.00000000	
          2.16000000	         -0.65111315	        560.02469432	         34.68140510	          0.50031438	          0.00000000	          0.21073913	         -0.00341340	         -0.00817110	         -0.00025944	          0.00000502	          0.00000000	         -0.00001866	          0.00000000	         -2.25247271	          0.00000000	          0.00000000	         -0.00002056	          0.00000000	
          2.16500000	          1.83681582	        569.29379318	         34.40502150	          0.50194029	          0.00000000	          0.21080591	         -0.00241512	         -0.00585064	         -0.00019421	          0.00000492	          0.00000000	         -0.00001798	          0.00000000	         -2.42370025	          0.00000000	          0.00000000	         -0.00001522	          0.00000000	
          2.17000000	          4.24087460	        579.13977843	         33.92302652	          0.50364461	          0.00000000	          0.21091332	         -0.00158394	         -0.00389985	         -0.00013702	          0.00000447	          0.00000000	         -0.00001613	          0.00000000	         -2.60253339	          0.00000000	          0.00000000	         -0.00001060	          0.00000000	
          2.17500000	          6.52951507	        589.37652310	         33.28512979	          0.50545530	          0.00000000	          0.21105326	         -0.00092565	         -0.00234042	         -0.00008951	          0.00000382	          0.00000000	         -0.00001366	          0.00000000	         -2.78388889	          0.00000000	          0.00000000	         -0.00000680	          0.00000000	
          2.18000000	          8.67427295	        599.81817853	         32.55247270	          0.50739785	          0.00000000	          0.21121614	         -0.00043029	         -0.00115529	         -0.00005196	          0.00000311	          0.00000000	         -0.00001100	          0.00000000	         -2.96134216	          0.00000000	          0.00000000	         -0.00000382	          0.00000000	
          2.18500000	         10.65052419	        610.28613122	         31.79318153	          0.50949482	          0.00000000	          0.21139260	         -0.00007859	         -0.00030392	         -0.00002377	          0.00000240	          0.00000000	         -0.00000842	          0.00000000	         -3.12776214	          0.00000000	          0.00000000	         -0.00000161	          0.00000000	
          2.19000000	         12.43910804	        620.61695461	         31.07520744	          0.51176410	          0.00000000	          0.21157555	          0.00015316	          0.00026608	         -0.00000382	          0.00000176	          0.00000000	         -0.00000610	          0.00000000	         -3.27628896	          0.00000000	          0.00000000	         -0.00000006	          0.00000000	
          2.19500000	         14.02775922	        630.66856602	         30.45887041	          0.51421653	          0.00000000	          0.21176028	          0.00028966	          0.00061057	          0.00000928	          0.00000121	          0.00000000	         -0.00000413	          0.00000000	         -3.40107443	          0.00000000	          0.00000000	          0.00000093	          0.00000000	
